<svg width="24" height="24" viewBox="0 0 24 24" fill="none" xmlns="http://www.w3.org/2000/svg">
<path d="M14.9999 16.9997V17.9997C14.9999 18.7953 14.6838 19.5584 14.1212 20.121C13.5586 20.6836 12.7955 20.9997 11.9999 20.9997C11.2042 20.9997 10.4412 20.6836 9.87856 20.121C9.31595 19.5584 8.99988 18.7953 8.99988 17.9997V16.9997M14.9999 16.9997H8.99988M14.9999 16.9997H18.5899C18.9729 16.9997 19.1649 16.9997 19.3199 16.9477C19.4657 16.8983 19.5981 16.816 19.7069 16.707C19.8156 16.5981 19.8978 16.4655 19.9469 16.3197C19.9999 16.1637 19.9999 15.9717 19.9999 15.5857C19.9999 15.4167 19.9999 15.3327 19.9859 15.2517C19.9612 15.1003 19.902 14.9565 19.8129 14.8317C19.7649 14.7647 19.7049 14.7047 19.5859 14.5857L19.1959 14.1957C19.1337 14.1334 19.0844 14.0595 19.0507 13.9782C19.0171 13.8968 18.9998 13.8097 18.9999 13.7217V9.99967C18.9999 9.08042 18.8188 8.17017 18.467 7.32089C18.1153 6.47161 17.5996 5.69993 16.9496 5.04992C16.2996 4.39991 15.5279 3.8843 14.6787 3.53252C13.8294 3.18073 12.9191 2.99967 11.9999 2.99967C11.0806 2.99967 10.1704 3.18073 9.3211 3.53252C8.47182 3.8843 7.70014 4.39991 7.05013 5.04992C6.40012 5.69993 5.88451 6.47161 5.53272 7.32089C5.18094 8.17017 4.99988 9.08042 4.99988 9.99967V13.7217C4.99994 13.8097 4.98267 13.8968 4.94904 13.9782C4.91541 14.0595 4.86608 14.1334 4.80388 14.1957L4.41388 14.5857C4.29388 14.7057 4.23488 14.7647 4.18788 14.8307C4.09791 14.9557 4.03802 15.0997 4.01288 15.2517C3.99988 15.3317 3.99988 15.4167 3.99988 15.5857C3.99988 15.9717 3.99988 16.1637 4.05188 16.3197C4.10121 16.4658 4.18366 16.5985 4.29277 16.7074C4.40189 16.8163 4.53472 16.8986 4.68088 16.9477C4.83588 16.9997 5.02688 16.9997 5.40988 16.9997H8.99988M18.0189 2.01367C19.3978 3.05307 20.484 4.43182 21.1719 6.01567M5.98188 2.01367C4.60262 3.05295 3.51601 4.43171 2.82788 6.01567" stroke="white" stroke-width="2" stroke-linecap="round" stroke-linejoin="round"/>
</svg>
