<svg width="24" height="24" viewBox="0 0 24 24" fill="none" xmlns="http://www.w3.org/2000/svg">
<path d="M20 16.9997V11.4517C20 10.9177 20 10.6507 19.935 10.4017C19.8774 10.1816 19.7827 9.97297 19.655 9.78473C19.51 9.57173 19.31 9.39473 18.907 9.04373L14.107 4.84373C13.361 4.19073 12.987 3.86373 12.567 3.73973C12.197 3.62973 11.803 3.62973 11.432 3.73973C11.012 3.86373 10.64 4.18973 9.894 4.84173L5.093 9.04373C4.691 9.39573 4.49 9.57173 4.346 9.78373C4.2178 9.97221 4.12276 10.1812 4.065 10.4017C4 10.6497 4 10.9177 4 11.4517V16.9997C4 17.9317 4 18.3977 4.152 18.7647C4.2524 19.0075 4.39963 19.228 4.58528 19.4138C4.77093 19.5997 4.99137 19.7471 5.234 19.8477C5.602 19.9997 6.068 19.9997 7 19.9997C7.932 19.9997 8.398 19.9997 8.766 19.8477C9.00863 19.7471 9.22907 19.5997 9.41472 19.4138C9.60037 19.228 9.7476 19.0075 9.848 18.7647C10 18.3977 10 17.9317 10 16.9997V15.9997C10 15.4693 10.2107 14.9606 10.5858 14.5855C10.9609 14.2104 11.4696 13.9997 12 13.9997C12.5304 13.9997 13.0391 14.2104 13.4142 14.5855C13.7893 14.9606 14 15.4693 14 15.9997V16.9997C14 17.9317 14 18.3977 14.152 18.7647C14.2524 19.0075 14.3996 19.228 14.5853 19.4138C14.7709 19.5997 14.9914 19.7471 15.234 19.8477C15.602 19.9997 16.068 19.9997 17 19.9997C17.932 19.9997 18.398 19.9997 18.766 19.8477C19.0086 19.7471 19.2291 19.5997 19.4147 19.4138C19.6004 19.228 19.7476 19.0075 19.848 18.7647C20 18.3977 20 17.9317 20 16.9997Z" stroke="#FFEBEB" stroke-width="2" stroke-linecap="round" stroke-linejoin="round"/>
</svg>
